<svg width="31" height="32" viewBox="0 0 31 32" fill="none" xmlns="http://www.w3.org/2000/svg">
<g clip-path="url(#clip0_4_4103)">
<path d="M25.5389 12.5356C26.1028 12.7141 26.4247 13.0157 26.4992 13.4457C26.5738 13.8756 26.414 14.3341 26.0256 14.8157C25.6089 15.3244 25.1067 15.6645 24.5358 15.8306C22.3366 16.4358 19.8149 16.5002 16.9709 16.0126C18.9963 14.3968 21.2344 13.2527 23.6912 12.5639C24.3573 12.3718 24.9695 12.3623 25.5389 12.5356ZM17.8828 6.14493C18.3799 5.77694 18.8832 5.65387 19.3926 5.77582C19.7907 5.89536 20.0895 6.2409 20.3056 6.81847C20.4822 7.42301 20.4811 8.01281 20.2913 8.57632C19.7192 10.4004 18.3164 12.5745 16.0941 15.0987C15.7683 12.5771 15.9919 10.117 16.7595 7.72391C16.9789 7.06641 17.3571 6.54013 17.8828 6.14493ZM23.491 22.9916C23.5291 23.5654 23.3751 24.0185 23.0174 24.3615C22.6938 24.6719 22.2298 24.7791 21.6308 24.6888C21.059 24.6268 20.5799 24.3887 20.1933 23.9857C18.723 22.4529 17.5442 20.2808 16.6625 17.4639C18.982 18.2911 21.0351 19.6245 22.8104 21.4752C23.2243 21.9067 23.4585 22.4123 23.4912 22.9805M7.53437 10.1525C7.49855 9.46747 7.68785 8.92616 8.10227 8.52863C8.45424 8.191 8.99087 8.0686 9.70115 8.16133C10.383 8.2812 10.9499 8.57674 11.391 9.03659C12.7197 10.4218 13.8433 12.5704 14.7568 15.4659C11.7251 14.3736 9.60202 13.1944 8.38219 11.9228C7.88118 11.4005 7.60399 10.816 7.53437 10.1525ZM13.9319 26.5037C13.4618 26.9001 12.9971 27.0407 12.5434 26.92C12.1453 26.8004 11.8574 26.4662 11.674 25.9227C11.4917 25.3236 11.4928 24.7338 11.6883 24.1648C12.5151 21.5949 13.7108 19.4778 15.2811 17.808C15.7091 20.5041 15.6046 22.8498 14.9733 24.8507C14.7526 25.5639 14.4017 26.1185 13.9316 26.5149M5.91799 20.4562C5.38377 20.1948 5.06365 19.8042 4.96869 19.2848C4.86579 18.8821 5.02561 18.4237 5.4423 17.9149C5.8579 17.4618 6.35402 17.1494 6.93039 16.9889C9.12952 16.3837 11.6179 16.3186 14.4062 16.805C11.9962 18.7244 9.72757 19.9958 7.58976 20.5967C7.00763 20.7626 6.4522 20.7177 5.91799 20.4562Z" fill="#EDF738"/>
</g>
<defs>
<clipPath id="clip0_4_4103">
<rect width="22.6721" height="20.1529" fill="white" transform="translate(15.9707 31.1211) rotate(-133.808)"/>
</clipPath>
</defs>
</svg>
